<?xml version="1.0" encoding="utf-8"?>
<!-- Generator: Adobe Illustrator 23.0.3, SVG Export Plug-In . SVG Version: 6.00 Build 0)  -->
<svg version="1.1" id="Layer_1" xmlns="http://www.w3.org/2000/svg" xmlns:xlink="http://www.w3.org/1999/xlink" x="0px" y="0px"
	 viewBox="0 0 294.76 283.46" style="enable-background:new 0 0 294.76 283.46;" xml:space="preserve">
<style type="text/css">
	.st0{fill:#644A9E;}
	.st1{fill:#1B173D;}
	.st2{fill:#E71D64;}
	.st3{fill:#F89621;}
	.st4{fill:#49B04D;}
	.st5{fill:#CDDA36;}
	.st6{fill:#FFFFFF;}
	.st7{fill:#008FD1;}
	.st8{fill:#15BAD4;}
	.st9{fill:#FCC115;}
	.st10{fill:#4455A5;}
</style>
<g>
	<polygon class="st6" points="232.59,202.74 23.62,202.74 23.62,59.83 259.05,59.83 294.76,103.93 294.76,184.4 	"/>
	<g>
		<path class="st10" d="M77.5,122.63c-8.43,0-12.42,6.29-13.03,11.96h26.06C90.22,128.15,85.47,122.63,77.5,122.63z"/>
		<path class="st10" d="M269.77,184.4v-8.28c-3.07,4.75-10.12,10.27-20.24,10.27c-25.14,0-27.59-21.46-27.59-37.86v-44.61h25.6
			v47.98c0,7.51,4.45,11.5,10.58,11.5c7.05,0,11.04-5.06,11.04-11.5v-47.98h25.6V0h-99.29c-7.83,18.85-26.4,32.11-48.09,32.11
			c-21.68,0-40.26-13.26-48.09-32.11H52.1C23.44,0,0,23.44,0,52.1v145.8C0,226.55,23.44,250,52.1,250h46.7
			c7.49,19.56,26.39,33.47,48.58,33.47c22.19,0,41.09-13.91,48.58-33.47h98.8V184.4H269.77z M116.44,150.83H63.7
			c0.61,7.21,7.51,13.34,17.01,13.34c9.66,0,15.33-6.28,16.86-8.58l16.86,13.03c-2.3,4.75-13.34,17.78-34.18,17.78
			c-26.52,0-42.77-18.24-42.77-42c0-23.61,15.94-42.46,39.55-42.46c25.6,0,39.55,16.4,39.55,43.84
			C116.59,147.31,116.59,149,116.44,150.83z M207.9,184.4h-23.91v-6.29c-2.3,2.61-9.96,8.28-21.77,8.28
			c-23.15,0-39.39-17.47-39.39-42.15c0-24.99,14.72-42.31,38.02-42.31c12.26,0,19.77,6.13,21.46,8.12V73.58h25.6V184.4z"/>
		<path class="st10" d="M165.74,124.47c-10.42,0-17.32,8.12-17.32,19.93c0,11.96,7.05,19.62,17.32,19.62
			c11.04,0,17.32-8.89,17.32-19.62C183.06,131.67,175.86,124.47,165.74,124.47z"/>
	</g>
</g>
</svg>
